<svg width="30" height="30" viewBox="0 0 30 30" fill="none" xmlns="http://www.w3.org/2000/svg">
<g clip-path="url(#clip0_1527_20860)">
<path d="M3.88739 4.0125C2.86242 4.0125 1.87495 4.425 1.13747 5.14999C0.412488 5.87498 0 6.86248 0 7.89997V17.0749C0 17.3874 0.0624982 17.6874 0.174995 17.9749C0.287492 18.2624 0.462486 18.5249 0.68748 18.7374C0.899974 18.9499 1.16247 19.1249 1.44996 19.2499C1.73745 19.3624 2.03744 19.4249 2.34993 19.4249H5.58734V6.34998C5.58734 5.43749 5.97483 4.59999 6.59981 4H3.88739V4.0125Z" fill="#31A854"/>
<path d="M8.81282 4.01251C8.50033 4.01251 8.20034 4.07501 7.91285 4.18751C7.62536 4.30001 7.36286 4.47501 7.15037 4.70001C6.93788 4.9125 6.76288 5.175 6.63789 5.4625C6.52539 5.75 6.46289 6.04999 6.46289 6.36249V9.59996H27.6498V9.62496C28.5622 9.62496 29.3997 10.0125 29.9997 10.6375V7.89998C29.9997 6.87499 29.5872 5.8875 28.8622 5.15C28.1373 4.42501 27.1498 4.01251 26.1123 4.01251H8.81282Z" fill="#547CC1"/>
<path d="M24.4129 10.4748V23.5372C24.4129 24.4497 24.0254 25.2872 23.4004 25.8872H26.1128C27.1378 25.8872 28.1253 25.4747 28.8627 24.7497C29.5877 24.0247 30.0002 23.0372 30.0002 21.9997V12.8123C30.0002 12.4998 29.9377 12.1998 29.8252 11.9123C29.7127 11.6248 29.5377 11.3623 29.3127 11.1498C29.1002 10.9373 28.8377 10.7623 28.5502 10.6373C28.2627 10.5248 27.9628 10.4623 27.6503 10.4623H24.4129V10.4748Z" fill="#EC4233"/>
<path d="M0 19.2994V22.0119C0 23.0368 0.412488 24.0243 1.13747 24.7618C1.86245 25.4868 2.84992 25.8993 3.88739 25.8993H21.1869C21.4994 25.8993 21.7994 25.8368 22.0869 25.7243C22.3743 25.6118 22.6368 25.4368 22.8493 25.2118C23.0618 24.9993 23.2368 24.7368 23.3618 24.4493C23.4743 24.1618 23.5368 23.8618 23.5368 23.5493V20.3119H2.34993C1.43746 20.3119 0.599982 19.9244 0 19.2994Z" fill="#FABB14"/>
</g>
<defs>
<clipPath id="clip0_1527_20860">
<rect width="30" height="30" fill="white"/>
</clipPath>
</defs>
</svg>
