<svg width="30" height="31" viewBox="0 0 30 31" fill="none" xmlns="http://www.w3.org/2000/svg">
<path d="M0.810819 17.0955C3.78379 17.8946 6.48648 19.4927 8.64864 21.6236C10.8108 23.7545 10.2703 23.4882 10.946 24.5536C11.8919 26.0186 12.7027 27.6168 13.1081 29.3481C13.3784 30.1472 14.054 30.5467 14.7297 30.5467C15.4054 30.5467 15.1351 30.5467 15.2703 30.5467C15.8108 30.4136 16.2162 30.014 16.3514 29.4813C17.1622 26.5513 18.7838 23.8877 20.9459 21.7568C23.1081 19.6259 25.6757 18.1609 28.7838 17.2287C29.5946 16.9623 30 16.2964 30 15.6305C30 14.9646 29.5946 14.2987 28.7838 14.0323C27.027 13.4996 25.4054 12.8337 23.9189 11.9014C20.2703 9.63735 17.5676 6.04147 16.4865 1.91286C16.3513 1.38014 15.9459 0.980593 15.4054 0.847412C15.2703 0.847412 15.1351 0.847412 14.8649 0.847412C14.5946 0.847412 14.7297 0.847412 14.5946 0.847412C14.0541 0.847412 13.5135 1.38014 13.3784 2.04604C12.5676 5.1092 10.946 7.63963 8.91893 9.77052C6.8919 11.7682 4.18919 13.3664 1.35135 14.1655H1.21621C0.540532 14.4319 0.135135 14.9646 0 15.4973C0 15.4973 0 15.6305 0 15.7637C0 16.4296 0.405397 17.0955 1.21621 17.3618L0.810819 17.0955Z" fill="url(#paint0_linear_195_1452)"/>
<defs>
<linearGradient id="paint0_linear_195_1452" x1="0" y1="15.6971" x2="30" y2="15.6971" gradientUnits="userSpaceOnUse">
<stop stop-color="#FF4F6D"/>
<stop offset="1" stop-color="#6C3DF0"/>
</linearGradient>
</defs>
</svg>
