<svg width="154" height="25" viewBox="0 0 154 25" fill="none" xmlns="http://www.w3.org/2000/svg">
<path d="M11.6923 16.6859C10.1282 15.1375 7.61539 15.1375 6.07692 16.6859L5.02564 17.7267C4.92308 17.8282 4.76923 17.9044 4.61539 17.9044C4.28205 17.9044 4 17.6252 4 17.2952V13.5383H0V22.1435C0 22.1943 0 22.2704 0 22.3212C0 22.3212 0 22.3212 0 22.3466C0 22.3466 0 22.372 0 22.3974V22.4481V22.4989V22.5497C0 22.5497 0 22.5497 0 22.575C0 22.575 0 22.575 0 22.6004C0 22.6258 0 22.6766 0 22.702C0 22.7273 -3.91633e-07 22.7781 0.0256406 22.8035C0.0256406 22.8543 0.0512809 22.905 0.0769219 22.9558C0.0769219 23.0066 0.128205 23.0573 0.128205 23.1081C0.128205 23.1335 0.153845 23.1589 0.179486 23.1843C0.205127 23.235 0.230769 23.3112 0.282051 23.3619C0.282051 23.3873 0.333334 23.4381 0.358975 23.4635C0.410257 23.565 0.487179 23.6412 0.564102 23.7173C0.564102 23.7173 0.589744 23.7681 0.615385 23.7681C0.641026 23.7935 0.692307 23.8442 0.717948 23.8696C0.717948 23.8696 0.769231 23.9204 0.794872 23.9458C0.794872 23.9458 0.820512 23.9712 0.846153 23.9965C0.846153 23.9965 0.897436 24.0219 0.897436 24.0473C0.897436 24.0473 0.923076 24.0473 0.948717 24.0727C0.948717 24.0727 1 24.0981 1 24.1235C1 24.1235 1 24.1235 1.02564 24.1235C1.02564 24.1235 1.05128 24.1235 1.07692 24.1489C1.07692 24.1489 1.07692 24.1489 1.12821 24.1489C1.12821 24.1489 1.15385 24.1489 1.17949 24.1742C1.17949 24.1742 1.17949 24.1742 1.20513 24.1742C1.20513 24.1742 1.25641 24.1742 1.28205 24.1996C1.41026 24.2504 1.5641 24.3012 1.69231 24.3519C1.69231 24.3519 1.71795 24.3519 1.74359 24.3519C1.74359 24.3519 1.79487 24.3519 1.82051 24.3519C1.84615 24.3519 1.8718 24.3519 1.89744 24.3519C1.89744 24.3519 1.89744 24.3519 1.92308 24.3519C1.92308 24.3519 1.94872 24.3519 1.97436 24.3519C1.97436 24.3519 2.02564 24.3519 2.05128 24.3519C2.07692 24.3519 2.10257 24.3519 2.15385 24.3519C2.17949 24.3519 2.23077 24.3519 2.25641 24.3519C2.28205 24.3519 2.33333 24.3519 2.35897 24.3519C2.38462 24.3519 2.4359 24.3519 2.46154 24.3519C2.46154 24.3519 2.51282 24.3519 2.53846 24.3519C2.53846 24.3519 2.53846 24.3519 2.5641 24.3519C2.58974 24.3519 2.64103 24.3519 2.66667 24.3519C2.74359 24.3519 2.79487 24.3519 2.87179 24.3265C2.89744 24.3265 2.92308 24.3265 2.94872 24.3265C3 24.3265 3.05128 24.3012 3.12821 24.2758C3.12821 24.2758 3.1282 24.2758 3.15385 24.2758C3.17949 24.2758 3.20513 24.2758 3.23077 24.2504C3.23077 24.2504 3.25641 24.2504 3.28205 24.2504C3.30769 24.2504 3.33333 24.2504 3.38462 24.1996C3.41026 24.1996 3.4359 24.1996 3.46154 24.1742C3.46154 24.1742 3.46154 24.1742 3.48718 24.1742C3.48718 24.1742 3.53846 24.1742 3.53846 24.1489C3.53846 24.1489 3.5641 24.1489 3.58974 24.1489C3.64103 24.1235 3.69231 24.0727 3.76923 24.0473C3.76923 24.0473 3.76923 24.0473 3.79487 24.0473C3.79487 24.0473 3.79487 24.0473 3.82051 24.0473L4.41026 23.4635L11.4359 16.5083L11.6923 16.6859Z" fill="url(#paint0_linear_195_1372)"/>
<path d="M20.3077 3.81624C20.8718 3.96855 21.3846 4.27315 21.7948 4.6793C22.2051 5.08544 22.1025 5.03468 22.2307 5.23775C22.4102 5.51697 22.5641 5.82158 22.641 6.15157C22.6923 6.30388 22.8205 6.38003 22.9487 6.38003C23.0769 6.38003 23.0256 6.38003 23.0512 6.38003C23.1538 6.35465 23.2307 6.27849 23.2564 6.17696C23.4102 5.61851 23.7179 5.11083 24.1282 4.70468C24.5384 4.29854 25.0256 4.01932 25.6153 3.84163C25.7692 3.79086 25.8461 3.66394 25.8461 3.53702C25.8461 3.4101 25.7692 3.28318 25.6153 3.23241C25.282 3.13087 24.9743 3.00395 24.6923 2.82627C24 2.39474 23.4871 1.70937 23.282 0.922464C23.2564 0.820928 23.1794 0.744775 23.0769 0.719391C23.0512 0.719391 23.0256 0.719391 22.9743 0.719391C22.923 0.719391 22.9487 0.719391 22.923 0.719391C22.8205 0.719391 22.7179 0.820927 22.6923 0.947848C22.5384 1.53168 22.2307 2.01398 21.8461 2.42012C21.4615 2.80088 20.9487 3.10549 20.4102 3.25779H20.3846C20.2564 3.30856 20.1794 3.4101 20.1538 3.51163C20.1538 3.51163 20.1538 3.53702 20.1538 3.5624C20.1538 3.68932 20.2307 3.81624 20.3846 3.86701L20.3077 3.81624Z" fill="url(#paint1_linear_195_1372)"/>
<path d="M21.7951 11.2791V17.4982C21.7694 17.5744 21.7181 17.6505 21.6668 17.7267C21.4361 17.9551 21.0258 17.9551 20.7951 17.7267L18.1284 15.0867L10.4104 7.44615C10.3592 7.39538 10.2822 7.34461 10.2309 7.29384L4.69248 1.8109L4.10274 1.22706C4.10274 1.22706 4.10274 1.22706 4.0771 1.22706C4.0771 1.22706 4.0771 1.22706 4.05146 1.22706C4.00018 1.20168 3.94889 1.15091 3.87197 1.12553C3.87197 1.12553 3.84633 1.12553 3.82069 1.12553C3.82069 1.12553 3.76941 1.12553 3.76941 1.10014C3.76941 1.10014 3.76941 1.10014 3.74377 1.10014C3.71813 1.10014 3.69248 1.10014 3.66684 1.07476C3.6412 1.07476 3.61556 1.04937 3.56428 1.02399C3.56428 1.02399 3.53864 1.02399 3.513 1.02399C3.48736 1.02399 3.46172 1.02399 3.43607 0.998606C3.43607 0.998606 3.43607 0.998606 3.41043 0.998606C3.35915 0.998606 3.30787 0.973223 3.23095 0.947838C3.2053 0.947838 3.17966 0.947838 3.15402 0.947838C3.0771 0.947838 3.02582 0.947839 2.94889 0.922455C2.92325 0.922455 2.87197 0.922455 2.84633 0.922455C2.84633 0.922455 2.84633 0.922455 2.82069 0.922455C2.82069 0.922455 2.76941 0.922455 2.74377 0.922455C2.71812 0.922455 2.66684 0.922455 2.6412 0.922455C2.61556 0.922455 2.56428 0.922455 2.53864 0.922455C2.513 0.922455 2.46171 0.922455 2.43607 0.922455C2.41043 0.922455 2.38479 0.922455 2.33351 0.922455C2.33351 0.922455 2.28223 0.922455 2.25659 0.922455C2.25659 0.922455 2.23095 0.922455 2.2053 0.922455C2.2053 0.922455 2.2053 0.922455 2.17966 0.922455C2.15402 0.922455 2.12838 0.922455 2.10274 0.922455C2.10274 0.922455 2.05146 0.922455 2.02582 0.922455C2.02582 0.922455 2.00018 0.922455 1.97453 0.922455C1.82069 0.973223 1.69248 0.998607 1.56428 1.07476C1.56428 1.07476 1.513 1.07476 1.48735 1.10014C1.48735 1.10014 1.48735 1.10014 1.46171 1.10014C1.46171 1.10014 1.43607 1.10014 1.41043 1.12553C1.41043 1.12553 1.38479 1.12553 1.35915 1.12553C1.35915 1.12553 1.33351 1.12553 1.30787 1.15091C1.30787 1.15091 1.30787 1.15091 1.28223 1.15091C1.28223 1.15091 1.23094 1.17629 1.23094 1.20168C1.23094 1.20168 1.2053 1.20168 1.17966 1.22706C1.17966 1.22706 1.12838 1.25245 1.12838 1.27783C1.12838 1.27783 1.10274 1.30321 1.0771 1.3286C1.0771 1.3286 1.02582 1.37937 1.00018 1.40475C0.974535 1.43013 0.923253 1.4809 0.897612 1.50629C0.897612 1.50629 0.87197 1.55706 0.846328 1.55706C0.769405 1.63321 0.692483 1.73474 0.641201 1.8109C0.589919 1.88705 0.564278 1.93781 0.512996 2.01397C0.512996 2.01397 0.512995 2.06474 0.461713 2.09012C0.461713 2.1155 0.436073 2.14089 0.410432 2.16627C0.410432 2.21704 0.35915 2.26781 0.35915 2.31858C0.35915 2.36934 0.333508 2.42011 0.307867 2.47088C0.307867 2.49626 0.307868 2.54703 0.282227 2.57242C0.282227 2.5978 0.282227 2.64857 0.282227 2.67395C0.282227 2.67395 0.282227 2.67395 0.282227 2.69934C0.282227 2.69934 0.282227 2.69934 0.282227 2.72472V2.77549V2.82626V2.87702C0.282227 2.87702 0.282227 2.90241 0.282227 2.92779C0.282227 2.92779 0.282227 2.92779 0.282227 2.95318C0.282227 3.00395 0.282227 3.0801 0.282227 3.13086V11.7614H4.28223V8.0046C4.28223 7.6746 4.56428 7.39538 4.89761 7.39538C5.05146 7.39538 5.2053 7.47153 5.30787 7.57307L7.71813 9.95917C7.76941 10.0099 7.82069 10.0607 7.87197 10.1115L15.5899 17.7521L21.7438 23.8442C21.7951 23.895 21.8207 23.9204 21.872 23.9712C21.872 23.9712 21.872 23.9712 21.8976 23.9712C21.8976 23.9712 21.8976 23.9712 21.9233 23.9712C21.9233 23.9712 21.9489 23.9965 21.9745 24.0219C21.9745 24.0219 22.0002 24.0219 22.0258 24.0473C22.0258 24.0473 22.0515 24.0473 22.0771 24.0727C22.0771 24.0727 22.0771 24.0727 22.1027 24.0727C22.1284 24.0727 22.1797 24.1235 22.2053 24.1235C22.231 24.1235 22.2822 24.1742 22.3079 24.1742C22.3592 24.1996 22.4104 24.225 22.4617 24.2504C22.513 24.2504 22.5643 24.3011 22.6156 24.3265C22.6412 24.3265 22.6668 24.3265 22.7181 24.3519C22.7951 24.3519 22.8463 24.4027 22.9233 24.4027C22.9745 24.4027 23.0002 24.4027 23.0515 24.4281C23.154 24.4281 23.2822 24.4534 23.3848 24.4788C23.4104 24.4788 23.4361 24.4788 23.4617 24.4788C23.513 24.4788 23.5643 24.4788 23.5899 24.4788C23.6156 24.4788 23.6668 24.4788 23.6925 24.4788C23.6925 24.4788 23.7438 24.4788 23.7694 24.4788C23.7694 24.4788 23.8207 24.4788 23.8463 24.4788H23.8976C23.8976 24.4788 23.9489 24.4788 23.9745 24.4788C23.9745 24.4788 23.9745 24.4788 24.0002 24.4788H24.0515C24.0515 24.4788 24.0771 24.4788 24.1027 24.4788H24.154C24.154 24.4788 24.154 24.4788 24.1797 24.4788C24.2053 24.4788 24.231 24.4788 24.2566 24.4534C24.3848 24.4027 24.5386 24.3519 24.6669 24.2758C24.6669 24.2758 24.6668 24.2758 24.6925 24.2758C24.6925 24.2758 24.7438 24.2504 24.7694 24.225C24.7694 24.225 24.8207 24.1996 24.8463 24.1742C24.8463 24.1742 24.8463 24.1742 24.872 24.1742C24.872 24.1742 24.8976 24.1742 24.9233 24.1488C24.9233 24.1488 24.9489 24.1235 24.9745 24.0981C24.9745 24.0981 25.0258 24.0727 25.0515 24.0473C25.0515 24.0473 25.1027 23.9965 25.1284 23.9712C25.154 23.9712 25.1797 23.9204 25.2053 23.895C25.2053 23.895 25.2566 23.8442 25.2822 23.8188C25.2822 23.7935 25.3079 23.7681 25.3335 23.7681C25.3335 23.7427 25.3848 23.7173 25.4104 23.6919C25.4617 23.6412 25.4874 23.5904 25.5386 23.5396C25.5386 23.5396 25.5643 23.4889 25.5899 23.4635C25.6156 23.4127 25.6412 23.3619 25.6668 23.3112C25.6668 23.3112 25.6668 23.3112 25.6668 23.2858C25.6668 23.2858 25.6669 23.235 25.6925 23.2096C25.6925 23.2096 25.6925 23.1842 25.6925 23.1589C25.6925 23.1335 25.7181 23.1081 25.7438 23.0573C25.7438 23.0319 25.7438 23.0066 25.7694 22.9812C25.7694 22.9812 25.7694 22.9812 25.7694 22.9558C25.7694 22.9558 25.7694 22.905 25.7694 22.8796C25.7694 22.8796 25.7694 22.8543 25.7694 22.8289C25.7694 22.7781 25.7951 22.7019 25.8207 22.6512C25.8207 22.6512 25.8207 22.6512 25.8207 22.6258C25.8207 22.6258 25.8207 22.6258 25.8207 22.6004C25.8207 22.6004 25.8207 22.6004 25.8207 22.575V21.7627V20.1128V7.31923C23.6156 7.31923 21.8207 9.09611 21.8207 11.2791H21.7951Z" fill="url(#paint2_linear_195_1372)"/>
<path d="M50.4223 24.2547C47.5436 24.2547 44.859 22.8138 43.2741 20.4442L38.0988 12.7272V19.7077C38.0988 22.2374 36.0288 24.2547 33.5059 24.2547V5.55453C36.3846 5.55453 39.0692 6.99547 40.6218 9.36502L45.797 17.1461V10.1015C45.797 7.57185 47.867 5.55453 50.39 5.55453V24.2547H50.4223Z" fill="white"/>
<path d="M67.8561 17.9146H57.441C57.5057 18.8432 57.8292 19.5477 58.3467 20.028C58.8642 20.5083 59.5111 20.7645 60.2874 20.7645C61.4195 20.7645 62.2281 20.2841 62.6809 19.3235H67.565C67.3062 20.3162 66.8534 21.1807 66.2065 21.9492C65.5596 22.7177 64.7186 23.3581 63.7483 23.7744C62.7456 24.2227 61.6459 24.4468 60.4491 24.4468C59.2523 24.4468 57.6674 24.1266 56.5354 23.5182C55.4033 22.9098 54.4976 22.0133 53.8507 20.8605C53.2038 19.7078 52.8804 18.3629 52.8804 16.8259C52.8804 15.2889 53.2038 13.944 53.8507 12.7913C54.4976 11.6385 55.3709 10.7419 56.5354 10.1335C57.6674 9.52513 58.9936 9.20493 60.4814 9.20493C61.9693 9.20493 63.2308 9.49311 64.3629 10.1015C65.4949 10.7099 66.3682 11.5745 67.0151 12.6952C67.662 13.8159 67.9855 15.1288 67.9855 16.6017C67.9855 18.0747 67.9855 17.4663 67.9208 17.9466L67.8561 17.9146ZM63.1984 15.3849C63.1984 14.6164 62.9397 13.976 62.3898 13.5277C61.8399 13.0794 61.193 12.8233 60.3844 12.8233C59.5758 12.8233 58.9612 13.0474 58.4437 13.4957C57.9262 13.944 57.6027 14.5844 57.4734 15.3849H63.2308H63.1984Z" fill="white"/>
<path d="M79.2095 24.2547L76.3308 20.124L73.9049 24.2547H68.9238L73.8726 16.6658L68.7944 9.39703H73.9696L76.8483 13.4957L79.2742 9.39703H84.2553L79.2095 16.8899L84.3847 24.2547H79.2095Z" fill="white"/>
<path d="M94.5411 20.3802V24.2547H92.2122C90.5303 24.2547 89.2365 23.8384 88.2985 23.0379C87.3605 22.2374 86.9076 20.9245 86.9076 19.0673V13.1435H85.064V9.365H86.9076V5.74664H91.5006V9.365H94.5087V13.1435H91.5006V19.0993C91.5006 19.5476 91.5977 19.8678 91.8241 20.06C92.0505 20.2521 92.4063 20.3481 92.8915 20.3481H94.5411V20.3802Z" fill="white"/>
<path d="M110.714 14.5204C110.196 15.417 109.452 16.1534 108.385 16.6978C107.35 17.2421 106.056 17.5303 104.503 17.5303H101.657V19.6757C101.657 22.2054 99.5869 24.2227 97.064 24.2227V5.52252H104.503C106.024 5.52252 107.285 5.77869 108.32 6.29102C109.355 6.80335 110.131 7.50782 110.649 8.43642C111.166 9.333 111.425 10.3897 111.425 11.5424C111.425 12.6952 111.166 13.6238 110.681 14.5204H110.714ZM106.153 13.3036C106.573 12.8873 106.8 12.3109 106.8 11.5745C106.8 10.838 106.573 10.2616 106.153 9.84534C105.732 9.42906 105.053 9.23694 104.18 9.23694H101.689V13.912H104.18C105.053 13.912 105.7 13.7199 106.153 13.3036Z" fill="white"/>
<path d="M118.476 9.36502V24.2227H113.883V13.912C113.883 11.3823 115.953 9.36502 118.476 9.36502Z" fill="white"/>
<path d="M121.84 12.7592C122.487 11.6065 123.36 10.7099 124.492 10.1015C125.624 9.49309 126.95 9.17288 128.406 9.17288C129.862 9.17288 131.867 9.6532 133.128 10.6458C134.39 11.6385 135.231 12.9834 135.619 14.7765H130.735C130.314 13.6558 129.538 13.0794 128.341 13.0794C127.145 13.0794 126.821 13.3996 126.336 14.0401C125.818 14.6805 125.592 15.6091 125.592 16.8259C125.592 18.0427 125.851 18.9713 126.336 19.6117C126.853 20.2521 127.5 20.5723 128.341 20.5723C129.182 20.5723 130.314 19.9959 130.735 18.8752H135.619C135.231 20.6043 134.39 21.9812 133.128 22.9739C131.867 23.9665 130.282 24.4788 128.406 24.4788C126.53 24.4788 125.624 24.1586 124.492 23.5502C123.36 22.9418 122.455 22.0453 121.84 20.8925C121.193 19.7398 120.87 18.3949 120.87 16.8579C120.87 15.3209 121.193 13.976 121.84 12.8233V12.7592Z" fill="white"/>
<path d="M147.263 24.2547L142.702 18.0106V24.2547H138.109V9.10885C138.109 6.5792 140.179 4.56189 142.702 4.56189V15.449L147.263 9.39704H152.956L146.713 16.8579L153.02 24.2547H147.328H147.263Z" fill="white"/>
<path d="M112.848 4.62593C113.56 4.81806 114.207 5.20231 114.724 5.71464C115.242 6.22698 115.113 6.16294 115.274 6.4191C115.501 6.77133 115.695 7.15558 115.792 7.57185C115.856 7.76397 116.018 7.86004 116.18 7.86004C116.342 7.86004 116.277 7.86004 116.309 7.86004C116.439 7.82802 116.536 7.73196 116.568 7.60387C116.762 6.89941 117.15 6.259 117.668 5.74666C118.185 5.23433 118.8 4.8821 119.544 4.65796C119.738 4.59391 119.835 4.43381 119.835 4.2737C119.835 4.1136 119.738 3.9535 119.544 3.88945C119.123 3.76137 118.735 3.60127 118.379 3.37712C117.506 2.83277 116.859 1.9682 116.6 0.975559C116.568 0.847475 116.471 0.751412 116.342 0.719391C116.309 0.719391 116.277 0.719391 116.212 0.719391C116.148 0.719391 116.18 0.719391 116.148 0.719391C116.018 0.719391 115.889 0.847475 115.856 1.00758C115.662 1.74406 115.274 2.35245 114.789 2.86479C114.304 3.3451 113.657 3.72935 112.978 3.92148H112.945C112.784 3.98552 112.687 4.1136 112.654 4.24168C112.654 4.24168 112.654 4.2737 112.654 4.30572C112.654 4.46583 112.751 4.62593 112.945 4.68998L112.848 4.62593Z" fill="white"/>
<defs>
<linearGradient id="paint0_linear_195_1372" x1="0" y1="18.9451" x2="11.6923" y2="18.9451" gradientUnits="userSpaceOnUse">
<stop stop-color="#FF4F6D"/>
<stop offset="1" stop-color="#6C3DF0"/>
</linearGradient>
<linearGradient id="paint1_linear_195_1372" x1="20.1538" y1="3.54971" x2="25.8461" y2="3.54971" gradientUnits="userSpaceOnUse">
<stop stop-color="#FF4F6D"/>
<stop offset="1" stop-color="#6C3DF0"/>
</linearGradient>
<linearGradient id="paint2_linear_195_1372" x1="0.282227" y1="12.7006" x2="25.8207" y2="12.7006" gradientUnits="userSpaceOnUse">
<stop stop-color="#FF4F6D"/>
<stop offset="1" stop-color="#6C3DF0"/>
</linearGradient>
</defs>
</svg>
