<svg width="128" height="128" viewBox="0 0 128 128" fill="none" xmlns="http://www.w3.org/2000/svg">
<path d="M31.1848 83.5237L26.12 88.5853C25.6238 89.0847 24.9419 89.3985 24.1831 89.4177C23.6837 89.4305 23.2131 89.3024 22.8001 89.0719C22.7777 89.0591 22.7585 89.0463 22.7361 89.0335C22.6016 88.9534 22.4735 88.8638 22.3519 88.7646C22.3391 88.755 22.3295 88.7454 22.3167 88.7357C22.0413 88.4988 21.8076 88.2075 21.6315 87.8841C21.6187 87.8617 21.6091 87.8393 21.5963 87.8169C21.5547 87.7369 21.5163 87.6536 21.4843 87.5704C21.4523 87.4872 21.4202 87.4039 21.3946 87.3207C21.3786 87.2727 21.369 87.2214 21.3562 87.1734C21.337 87.0998 21.321 87.023 21.3082 86.9461C21.3018 86.9045 21.2954 86.8629 21.289 86.8213C21.273 86.6996 21.2634 86.5779 21.2634 86.4531V68.2622H2V110.064C2 110.208 2.00961 110.349 2.01281 110.493C2.01601 110.637 2.01601 110.781 2.02561 110.922C2.02561 110.951 2.02882 110.983 2.03202 111.012C2.03522 111.041 2.03522 111.073 2.03842 111.101C2.04482 111.162 2.05123 111.226 2.05763 111.287C2.06083 111.338 2.06723 111.386 2.07364 111.438C2.08004 111.489 2.08324 111.537 2.08964 111.588C2.10245 111.687 2.11525 111.786 2.13126 111.886C2.14407 111.985 2.16008 112.084 2.17929 112.18C2.17929 112.187 2.17929 112.193 2.17929 112.196C2.18569 112.235 2.19209 112.276 2.1985 112.318C2.2081 112.369 2.2177 112.424 2.23051 112.475C2.26572 112.657 2.30415 112.837 2.34897 113.013C2.39379 113.192 2.4386 113.368 2.48983 113.544C2.56666 113.807 2.6531 114.066 2.74595 114.322C2.82278 114.533 2.90282 114.735 2.99246 114.94C3.01167 114.985 3.03088 115.03 3.05009 115.074C3.0821 115.148 3.11732 115.218 3.14934 115.289C3.18135 115.359 3.21657 115.433 3.24858 115.503C3.24858 115.507 3.25179 115.51 3.25499 115.513C3.33823 115.676 3.41826 115.849 3.45028 115.932C3.57193 116.125 3.68398 116.31 3.79604 116.493C3.88568 116.643 3.97852 116.79 4.07457 116.931C4.37231 117.383 4.70206 117.812 5.05742 118.218C5.14387 118.318 5.23031 118.414 5.31995 118.51C5.47362 118.676 5.63049 118.836 5.79377 118.99C5.90582 119.099 6.01788 119.204 6.13633 119.31C6.16194 119.332 6.19076 119.358 6.21637 119.377C6.21637 119.377 6.21957 119.38 6.22277 119.384C6.23557 119.393 6.24838 119.403 6.25798 119.412C6.33482 119.48 6.41165 119.547 6.49169 119.611C6.5205 119.64 6.55252 119.665 6.58454 119.691L6.59094 119.697C6.61976 119.72 6.64856 119.742 6.67738 119.765C6.77022 119.841 6.86627 119.915 6.96552 119.986C6.99113 120.008 7.01674 120.027 7.04555 120.043C7.05196 120.046 7.05836 120.056 7.06476 120.059C7.08077 120.072 7.09677 120.082 7.11278 120.094C7.17361 120.139 7.23444 120.184 7.29527 120.229C7.31768 120.245 7.34009 120.261 7.3625 120.274C7.3689 120.28 7.37531 120.283 7.38491 120.29C7.42013 120.315 7.45534 120.338 7.48736 120.357C7.5866 120.427 7.68585 120.491 7.7883 120.555C7.81391 120.571 7.83632 120.584 7.86193 120.6C7.88755 120.616 7.91316 120.629 7.93557 120.645C8.01881 120.699 8.10525 120.747 8.19169 120.799C8.23971 120.827 8.28773 120.853 8.33895 120.882C8.35176 120.888 8.36457 120.898 8.38057 120.904C8.47022 120.956 8.55985 121.004 8.6527 121.048C8.67511 121.061 8.69752 121.074 8.72313 121.084C8.74874 121.093 8.76795 121.109 8.79356 121.119C8.90882 121.18 9.02727 121.237 9.14893 121.292C9.27379 121.353 9.40185 121.407 9.53311 121.461C10.0485 121.682 10.58 121.868 11.1275 122.018C11.1915 122.038 11.2555 122.054 11.3195 122.07C11.3708 122.082 11.4252 122.095 11.4764 122.108C11.5436 122.124 11.6141 122.143 11.6813 122.156C11.7005 122.163 11.7229 122.166 11.7453 122.169C11.883 122.201 12.0207 122.23 12.1615 122.255C12.216 122.265 12.2672 122.275 12.3216 122.281C12.408 122.297 12.4977 122.313 12.5841 122.323C12.6418 122.332 12.6994 122.339 12.757 122.348C12.8082 122.355 12.8563 122.364 12.9075 122.367C12.9779 122.377 13.0483 122.38 13.1156 122.39C13.1924 122.396 13.2693 122.406 13.3493 122.412C13.503 122.425 13.6598 122.438 13.8167 122.441C13.8231 122.441 13.8295 122.441 13.8359 122.441C13.8423 122.441 13.8487 122.441 13.8551 122.441C14.0344 122.451 14.2169 122.454 14.3994 122.454C14.5563 122.454 14.7131 122.451 14.87 122.444H14.9212C14.9852 122.441 15.0493 122.435 15.1101 122.431C15.1677 122.428 15.2222 122.425 15.2766 122.422C15.3182 122.422 15.363 122.415 15.4078 122.412C15.4879 122.406 15.5711 122.396 15.6512 122.39C15.7312 122.383 15.8144 122.377 15.8945 122.367C16.077 122.345 16.2562 122.319 16.4323 122.291C16.5764 122.265 16.7205 122.239 16.8645 122.211C16.9222 122.198 16.9798 122.185 17.0374 122.172C17.111 122.156 17.1879 122.14 17.2615 122.124C17.2967 122.114 17.3319 122.105 17.3704 122.098C17.5304 122.057 17.6873 122.009 17.8474 121.961C17.9594 121.929 18.0747 121.9 18.1867 121.865C18.238 121.849 18.2924 121.833 18.3436 121.814C18.4717 121.772 18.5965 121.727 18.7246 121.679C18.7918 121.653 18.8591 121.628 18.9231 121.602C19.0768 121.545 19.2272 121.481 19.3777 121.413C19.3777 121.413 19.3809 121.413 19.3841 121.413C19.3841 121.413 19.3905 121.413 19.3937 121.41C19.3937 121.41 19.3969 121.41 19.4001 121.407C19.525 121.349 19.653 121.295 19.7779 121.231C19.8355 121.205 19.8899 121.176 19.9444 121.151C20.0468 121.1 20.1493 121.045 20.2517 120.991C20.3189 120.956 20.383 120.92 20.4502 120.882C20.7255 120.728 20.9944 120.565 21.257 120.389C21.2922 120.363 21.3306 120.338 21.3658 120.315C21.417 120.283 21.4651 120.248 21.5131 120.213C21.5579 120.184 21.5995 120.152 21.6443 120.12L21.6572 120.107L21.8332 119.931C23.9494 118.337 25.6782 116.262 27.5063 114.364C28.1626 113.682 28.8253 113.009 29.4848 112.331C29.4848 112.315 29.4848 112.299 29.4816 112.283L58.1926 83.5749C58.1926 83.5749 58.2054 83.5429 58.1926 83.5301C50.7331 76.0706 38.6379 76.0706 31.1784 83.5301L31.1848 83.5237Z" fill="url(#paint0_linear_1232_18994)"/>
<path d="M99.6387 21.1399C102.366 21.8922 104.793 23.3361 106.727 25.273C107.534 26.0798 108.254 26.973 108.875 27.9334C109.746 29.2812 110.421 30.7731 110.86 32.3643C111.058 33.0814 111.667 33.4432 112.278 33.4432C112.432 33.4432 112.586 33.4176 112.736 33.3728C113.171 33.2383 113.549 32.9021 113.696 32.3643C114.449 29.6398 115.893 27.2099 117.83 25.273C119.767 23.3393 122.196 21.8954 124.921 21.1399C125.638 20.9414 126 20.3299 126 19.7216C126 19.1133 125.641 18.5018 124.921 18.3033C123.33 17.8615 121.841 17.1892 120.49 16.3184C117.212 14.2086 114.766 10.9431 113.696 7.0789C113.549 6.54425 113.171 6.2049 112.736 6.07043C112.589 6.02561 112.435 6 112.278 6C112.195 6 112.112 6.00641 112.029 6.02241C111.51 6.10565 111.033 6.45781 110.86 7.0789L110.815 7.23898C110.05 9.90262 108.625 12.2717 106.727 14.1734C104.828 16.0751 102.459 17.4934 99.7956 18.2585L99.6355 18.3033C99.0177 18.4762 98.6623 18.95 98.5791 19.4719C98.563 19.5519 98.5566 19.6384 98.5566 19.7216C98.5566 20.3299 98.9152 20.9414 99.6355 21.1399H99.6387Z" fill="url(#paint1_linear_1232_18994)"/>
<path d="M106.737 57.2399V87.4267C106.612 87.8333 106.394 88.2175 106.084 88.5441C104.979 89.7062 103.055 89.639 101.922 88.5056L89.0806 75.6644C89.0806 75.6644 89.0485 75.6516 89.0357 75.6644L89.0581 75.642L51.9721 38.556C51.6935 38.2774 51.399 38.0213 51.0949 37.7812C49.603 36.2893 48.1111 34.7974 46.6192 33.3055C44.4262 31.1157 42.2363 28.9227 40.0433 26.7329C37.9111 24.6007 35.7789 22.4685 33.6467 20.3363C31.585 18.2745 29.5328 16.1967 27.5095 14.0966C25.5694 12.0796 23.7445 9.8578 21.4427 8.23464C20.7992 7.78003 20.114 7.37344 19.3937 7.05009C19.3873 7.04689 19.3841 7.04689 19.3777 7.04368C19.2272 6.97645 19.0768 6.91242 18.9231 6.8548C18.8591 6.82919 18.7918 6.80358 18.7246 6.77796C18.5965 6.72994 18.4717 6.68512 18.3436 6.6435C18.2924 6.62429 18.238 6.60829 18.1867 6.59228C17.9178 6.50584 17.6457 6.429 17.3704 6.35857C17.3319 6.35216 17.2967 6.34256 17.2615 6.33295C17.1303 6.30094 16.999 6.27213 16.8645 6.24652C16.5476 6.18249 16.2242 6.12806 15.8945 6.08964C15.7344 6.07043 15.5711 6.05443 15.4078 6.04162C15.363 6.04162 15.3182 6.03522 15.2766 6.03202C15.1581 6.02241 15.0365 6.01601 14.918 6.0096H14.8668C14.7099 6.0032 14.553 6 14.3962 6C14.2137 6 14.0312 6 13.8519 6.0128C13.8391 6.0128 13.8263 6.0128 13.8135 6.0128C13.6566 6.0128 13.4998 6.02881 13.3461 6.04162C13.1956 6.05443 13.0516 6.06723 12.9043 6.08644C12.7954 6.09925 12.6866 6.11205 12.5809 6.13126C12.4945 6.14087 12.4048 6.15687 12.3184 6.17288C12.264 6.17928 12.2128 6.18889 12.1583 6.19849C12.0175 6.2241 11.8798 6.25292 11.7421 6.28493C11.7197 6.28813 11.6973 6.29134 11.6781 6.29774C11.5565 6.32335 11.4348 6.35216 11.3163 6.38418C11.2523 6.40019 11.1883 6.41619 11.1242 6.4354C10.4391 6.62109 9.77642 6.8644 9.14573 7.16214C9.02407 7.21657 8.90562 7.27419 8.79036 7.33502C8.74234 7.35743 8.69752 7.38304 8.6527 7.40865C8.55985 7.45348 8.47022 7.5015 8.38057 7.55273C8.31654 7.58794 8.25572 7.62316 8.19489 7.65838C8.10845 7.7096 8.02201 7.75762 7.93877 7.81205C7.89074 7.84086 7.83952 7.86967 7.7915 7.90169C7.68905 7.96572 7.58981 8.02974 7.49056 8.10018C7.45855 8.11939 7.42333 8.1418 7.38811 8.16741C7.35609 8.18662 7.32728 8.20903 7.29847 8.22824C7.22163 8.28267 7.1448 8.33709 7.06796 8.39792C7.03595 8.41713 7.00073 8.44274 6.96872 8.47155C6.86947 8.54198 6.77343 8.61562 6.68058 8.69246C6.65177 8.71487 6.62295 8.73727 6.58774 8.76609C6.55572 8.7917 6.52371 8.81731 6.4949 8.84613C6.40205 8.91656 6.31241 8.9934 6.22597 9.07343C6.19716 9.09584 6.16834 9.12145 6.13953 9.14707C6.02108 9.25272 5.90902 9.35836 5.79697 9.46722C5.63369 9.62089 5.47682 9.78096 5.32315 9.94744C5.23351 10.0435 5.14707 10.1395 5.06063 10.2388C4.70526 10.6454 4.37551 11.0744 4.07777 11.5258C3.86327 11.8427 3.67758 12.1757 3.45348 12.5246C3.42146 12.6111 3.33823 12.7904 3.25499 12.9536C3.18776 13.0945 3.12052 13.2386 3.05649 13.3826C2.94444 13.6292 2.8452 13.8789 2.75235 14.135C2.65951 14.3911 2.57307 14.6504 2.49623 14.913C2.44501 15.089 2.40019 15.2651 2.35537 15.4444C2.31054 15.6205 2.27213 15.7998 2.23691 15.9823C2.22411 16.0335 2.2145 16.0879 2.2049 16.1391C2.19529 16.1839 2.18889 16.232 2.18249 16.2768C2.16328 16.3728 2.14727 16.4721 2.13447 16.5713C2.11846 16.6706 2.10565 16.7698 2.09285 16.8691C2.08004 16.9683 2.07043 17.0676 2.06083 17.17C2.05443 17.2308 2.04802 17.2949 2.04162 17.3557C2.03842 17.4133 2.03202 17.4741 2.02882 17.535C2.00961 17.8199 2 18.1048 2 18.393V60.1948H21.2634V42.004C21.2634 40.384 22.56 38.9914 24.1799 39.033C24.9387 39.0522 25.6206 39.3659 26.1168 39.8654L37.6518 51.4004C37.8663 51.6661 38.0968 51.9254 38.3465 52.1751L75.4326 89.2612L75.455 89.2388C75.455 89.2388 75.4422 89.2708 75.455 89.2836L104.992 118.821C105.197 119.025 105.405 119.218 105.619 119.406C105.664 119.448 105.712 119.486 105.754 119.525C105.802 119.563 105.85 119.605 105.898 119.643C105.978 119.711 106.055 119.771 106.135 119.832C106.215 119.893 106.292 119.954 106.375 120.015C106.455 120.076 106.535 120.136 106.618 120.188C106.654 120.213 106.692 120.245 106.73 120.268C106.772 120.296 106.82 120.328 106.865 120.357C107.019 120.463 107.172 120.562 107.329 120.655C107.489 120.751 107.643 120.844 107.806 120.93C108.046 121.062 108.29 121.183 108.536 121.299C108.783 121.414 109.029 121.519 109.282 121.615C109.429 121.673 109.58 121.728 109.727 121.779C109.753 121.788 109.778 121.795 109.804 121.804C110.118 121.91 110.435 122 110.755 122.08C110.944 122.128 111.129 122.169 111.318 122.205C111.846 122.313 112.384 122.384 112.922 122.419C113.053 122.429 113.181 122.435 113.313 122.438C113.54 122.448 113.764 122.451 113.988 122.441C114.145 122.441 114.299 122.435 114.456 122.425C114.494 122.425 114.532 122.422 114.568 122.416C114.686 122.413 114.805 122.403 114.92 122.387C114.961 122.387 115 122.384 115.041 122.377H115.051C115.086 122.374 115.125 122.368 115.16 122.365C115.282 122.352 115.4 122.339 115.518 122.317C115.56 122.317 115.605 122.307 115.64 122.297C115.736 122.285 115.829 122.272 115.922 122.256C115.957 122.249 115.992 122.243 116.028 122.237C116.069 122.23 116.111 122.221 116.149 122.211C116.271 122.192 116.386 122.166 116.501 122.137C116.559 122.125 116.613 122.112 116.668 122.096C116.764 122.076 116.86 122.048 116.959 122.022C117.026 122.003 117.094 121.987 117.164 121.964C117.263 121.939 117.363 121.907 117.459 121.875C117.51 121.862 117.558 121.849 117.609 121.83C117.734 121.792 117.859 121.75 117.984 121.702C118.64 121.465 119.28 121.17 119.898 120.815C119.956 120.783 120.013 120.748 120.071 120.716C120.177 120.655 120.282 120.588 120.388 120.521C120.407 120.511 120.423 120.498 120.442 120.485C120.561 120.412 120.679 120.335 120.798 120.252C120.843 120.22 120.887 120.191 120.929 120.156C121.003 120.104 121.076 120.053 121.143 119.999C121.233 119.938 121.316 119.871 121.403 119.8C121.521 119.711 121.63 119.618 121.745 119.518C121.864 119.419 121.982 119.317 122.098 119.208C122.11 119.202 122.117 119.192 122.126 119.182C122.261 119.061 122.392 118.936 122.52 118.808C122.632 118.696 122.741 118.584 122.847 118.468L122.882 118.433C122.962 118.344 123.042 118.254 123.119 118.164C123.144 118.132 123.176 118.097 123.205 118.065C123.311 117.94 123.417 117.815 123.516 117.687C123.721 117.428 123.913 117.159 124.092 116.89C124.169 116.778 124.243 116.663 124.313 116.548C124.332 116.515 124.348 116.483 124.371 116.451C124.515 116.208 124.652 115.962 124.784 115.709C124.809 115.661 124.835 115.613 124.857 115.561C124.918 115.443 124.976 115.321 125.03 115.196C125.059 115.129 125.088 115.065 125.117 115.001C125.184 114.851 125.245 114.7 125.305 114.547C125.305 114.54 125.309 114.537 125.312 114.531C125.363 114.399 125.414 114.265 125.456 114.134C125.478 114.076 125.498 114.015 125.517 113.961C125.552 113.852 125.587 113.74 125.622 113.631C125.645 113.557 125.664 113.487 125.686 113.413C125.773 113.109 125.846 112.805 125.907 112.494C125.914 112.453 125.923 112.405 125.933 112.366C125.946 112.309 125.955 112.248 125.965 112.19C125.975 112.139 125.984 112.085 125.991 112.033V108.07V100.044V37.9669C115.352 37.9669 106.727 46.5917 106.727 57.2303L106.737 57.2399Z" fill="url(#paint2_linear_1232_18994)"/>
<defs>
<linearGradient id="paint0_linear_1232_18994" x1="2" y1="95.358" x2="58.1983" y2="95.358" gradientUnits="userSpaceOnUse">
<stop stop-color="#FF4F6D"/>
<stop offset="1" stop-color="#6C3DF0"/>
</linearGradient>
<linearGradient id="paint1_linear_1232_18994" x1="98.5566" y1="19.7216" x2="126" y2="19.7216" gradientUnits="userSpaceOnUse">
<stop stop-color="#FF4F6D"/>
<stop offset="1" stop-color="#6C3DF0"/>
</linearGradient>
<linearGradient id="paint2_linear_1232_18994" x1="2" y1="64.2236" x2="125.991" y2="64.2236" gradientUnits="userSpaceOnUse">
<stop stop-color="#FF4F6D"/>
<stop offset="1" stop-color="#6C3DF0"/>
</linearGradient>
</defs>
</svg>
