<svg width="212" height="237" viewBox="0 0 212 237" fill="none" xmlns="http://www.w3.org/2000/svg">
<ellipse cx="106" cy="106.32" rx="75" ry="75" fill="#8A38F5"/>
<g filter="url(#filter0_d_1648_21336)">
<mask id="mask0_1648_21336" style="mask-type:alpha" maskUnits="userSpaceOnUse" x="31" y="31" width="150" height="151">
<ellipse cx="106" cy="106.32" rx="75" ry="75" fill="#8A38F5"/>
</mask>
<g mask="url(#mask0_1648_21336)">
<rect x="50.2715" y="120.004" width="111.244" height="61.3158" fill="#1F2842"/>
</g>
</g>
<rect x="50.3691" y="14.4242" width="111.264" height="133.516" rx="30" fill="#1F2842"/>
<g clip-path="url(#clip0_1648_21336)">
<path d="M126.914 34.2036H85.0869C81.1264 34.2084 77.3295 35.7837 74.529 38.5842C71.7286 41.3847 70.1532 45.1816 70.1484 49.142V90.9697C70.1532 94.9301 71.7286 98.727 74.529 101.528C77.3295 104.328 81.1264 105.903 85.0869 105.908H126.914C130.875 105.903 134.672 104.328 137.472 101.528C140.273 98.727 141.848 94.9301 141.853 90.9697V49.142C141.848 45.1816 140.273 41.3847 137.472 38.5842C134.672 35.7837 130.875 34.2084 126.914 34.2036V34.2036ZM129.902 67.0682H135.878V73.0435H129.902V67.0682ZM129.902 61.0928V55.1174H135.878V61.0928H129.902ZM123.927 67.0682H88.0746V40.179H123.927V67.0682ZM82.0992 73.0435H76.1238V67.0682H82.0992V73.0435ZM82.0992 61.0928H76.1238V55.1174H82.0992V61.0928ZM76.1238 79.0189H82.0992V84.9943H76.1238V79.0189ZM88.0746 73.0435H123.927V99.9327H88.0746V73.0435ZM129.902 79.0189H135.878V84.9943H129.902V79.0189ZM135.878 49.142H129.902V40.7287C131.644 41.3444 133.153 42.4832 134.222 43.9892C135.292 45.4952 135.87 47.2949 135.878 49.142ZM82.0992 40.7287V49.142H76.1238C76.1315 47.2949 76.7096 45.4952 77.7793 43.9892C78.8489 42.4832 80.3576 41.3444 82.0992 40.7287ZM76.1238 90.9697H82.0992V99.383C80.3576 98.7673 78.8489 97.6285 77.7793 96.1225C76.7096 94.6165 76.1315 92.8168 76.1238 90.9697ZM129.902 99.383V90.9697H135.878C135.87 92.8168 135.292 94.6165 134.222 96.1225C133.153 97.6285 131.644 98.7673 129.902 99.383Z" fill="#35436C"/>
</g>
<rect x="141.854" y="130.221" width="71.7033" height="4.53296" rx="2.26648" transform="rotate(-180 141.854 130.221)" fill="#35436C"/>
<rect x="141.854" y="137.638" width="71.7033" height="4.53296" rx="2.26648" transform="rotate(-180 141.854 137.638)" fill="#35436C"/>
<rect x="141.854" y="145.056" width="71.7033" height="4.53296" rx="2.26648" transform="rotate(-180 141.854 145.056)" fill="#35436C"/>
<rect x="103.117" y="152.473" width="32.967" height="4.53296" rx="2.26648" transform="rotate(-180 103.117 152.473)" fill="#35436C"/>
<path d="M49.9484 14.4098C50.3641 13.9145 50.566 13.2743 50.5096 12.6301C50.4532 11.9859 50.1433 11.3905 49.6479 10.9748L45.9124 7.84036C45.417 7.42471 44.7769 7.22286 44.1327 7.27922C43.4885 7.33558 42.8931 7.64553 42.4774 8.1409C42.0617 8.63626 41.8599 9.27645 41.9162 9.92064C41.9726 10.5648 42.2826 11.1602 42.7779 11.5759L46.5134 14.7104C47.0088 15.126 47.649 15.3279 48.2932 15.2715C48.9374 15.2152 49.5328 14.9052 49.9484 14.4098Z" fill="#8938F4"/>
<path d="M55.6872 11.2257C56.0089 11.2071 56.3237 11.1249 56.6134 10.9839C56.9031 10.843 57.162 10.646 57.3752 10.4043C57.5883 10.1627 57.7514 9.88118 57.8551 9.57612C57.9588 9.27106 58.001 8.94847 57.9792 8.62701L57.6526 3.18484C57.6135 2.53911 57.3196 1.93533 56.8354 1.50633C56.3511 1.07734 55.7163 0.858274 55.0706 0.897325C54.4249 0.936375 53.8211 1.23034 53.3921 1.71456C52.9631 2.19878 52.744 2.83358 52.7831 3.47932L53.1097 8.92148C53.1268 9.24231 53.2072 9.55659 53.3461 9.84626C53.4851 10.1359 53.6799 10.3953 53.9195 10.6094C54.159 10.8235 54.4385 10.9882 54.7418 11.094C55.0452 11.1997 55.3665 11.2445 55.6872 11.2257Z" fill="#8938F4"/>
<path d="M44.9881 23.1842C45.6323 23.1111 46.2211 22.785 46.6249 22.2778C47.0287 21.7705 47.2145 21.1236 47.1414 20.4794C47.0683 19.8352 46.7422 19.2464 46.235 18.8426C45.7278 18.4387 45.0809 18.2529 44.4366 18.3261L39.0204 18.9494C38.7022 18.9859 38.3943 19.0847 38.1142 19.2402C37.8342 19.3956 37.5875 19.6048 37.3883 19.8556C36.9859 20.3622 36.8012 21.0078 36.8749 21.6505C36.9486 22.2932 37.2746 22.8803 37.7811 23.2827C38.2877 23.6851 38.9333 23.8697 39.576 23.7961L44.9881 23.1842Z" fill="#8938F4"/>
<defs>
<filter id="filter0_d_1648_21336" x="0.271484" y="75.0039" width="211.244" height="161.316" filterUnits="userSpaceOnUse" color-interpolation-filters="sRGB">
<feFlood flood-opacity="0" result="BackgroundImageFix"/>
<feColorMatrix in="SourceAlpha" type="matrix" values="0 0 0 0 0 0 0 0 0 0 0 0 0 0 0 0 0 0 127 0" result="hardAlpha"/>
<feOffset dy="5"/>
<feGaussianBlur stdDeviation="25"/>
<feComposite in2="hardAlpha" operator="out"/>
<feColorMatrix type="matrix" values="0 0 0 0 0.541176 0 0 0 0 0.219608 0 0 0 0 0.960784 0 0 0 1 0"/>
<feBlend mode="normal" in2="BackgroundImageFix" result="effect1_dropShadow_1648_21336"/>
<feBlend mode="normal" in="SourceGraphic" in2="effect1_dropShadow_1648_21336" result="shape"/>
</filter>
<clipPath id="clip0_1648_21336">
<rect width="71.7045" height="71.7045" fill="white" transform="translate(70.1484 34.2036)"/>
</clipPath>
</defs>
</svg>
