<svg width="212" height="237" viewBox="0 0 212 237" fill="none" xmlns="http://www.w3.org/2000/svg">
<ellipse cx="106" cy="106.32" rx="75" ry="75" fill="#0C8CE9"/>
<g filter="url(#filter0_d_1648_21285)">
<mask id="mask0_1648_21285" style="mask-type:alpha" maskUnits="userSpaceOnUse" x="31" y="31" width="150" height="151">
<ellipse cx="106" cy="106.32" rx="75" ry="75" fill="#8A38F5"/>
</mask>
<g mask="url(#mask0_1648_21285)">
<rect x="50.2715" y="120.004" width="111.244" height="61.3158" fill="#1F2842"/>
</g>
</g>
<rect x="50.3691" y="14.4241" width="111.264" height="133.516" rx="30" fill="#1F2842"/>
<g clip-path="url(#clip0_1648_21285)">
<path d="M136.475 40.6658C134.796 39.2614 132.827 38.244 130.71 37.6858C128.593 37.1276 126.379 37.0424 124.226 37.4361L112.807 39.5096C110.17 39.9937 107.773 41.3501 106.001 43.3607C104.223 41.3466 101.82 39.9899 99.1768 39.5096L87.7758 37.4361C85.6221 37.042 83.4082 37.1262 81.2906 37.6825C79.1731 38.2389 77.2038 39.254 75.522 40.6558C73.8402 42.0577 72.4872 43.8121 71.5586 45.7948C70.63 47.7775 70.1486 49.9402 70.1484 52.1296V84.3757C70.1486 87.8737 71.3763 91.2607 73.6175 93.9463C75.8588 96.632 78.9714 98.446 82.4129 99.0721L101.193 102.487C104.372 103.065 107.629 103.065 110.808 102.487L129.603 99.0721C133.042 98.4429 136.151 96.6275 138.39 93.9422C140.628 91.2568 141.853 87.8715 141.853 84.3757V52.1296C141.854 49.9409 141.373 47.7789 140.444 45.7975C139.514 43.816 138.159 42.0639 136.475 40.6658ZM103.013 96.7298C102.762 96.6939 102.511 96.6521 102.26 96.6073L83.4825 93.1953C81.4173 92.8196 79.5495 91.7309 78.2047 90.1192C76.8599 88.5074 76.1235 86.4748 76.1238 84.3757V52.1296C76.1238 49.7524 77.0681 47.4726 78.749 45.7917C80.4299 44.1108 82.7097 43.1665 85.0869 43.1665C85.6279 43.1678 86.1678 43.2168 86.7002 43.3129L98.1132 45.4043C99.4864 45.6556 100.728 46.3797 101.623 47.451C102.518 48.5223 103.01 49.8732 103.013 51.2691V96.7298ZM135.878 84.3757C135.878 86.4748 135.141 88.5074 133.797 90.1192C132.452 91.7309 130.584 92.8196 128.519 93.1953L109.741 96.6073C109.49 96.6521 109.239 96.6939 108.988 96.7298V51.2691C108.988 49.8697 109.479 48.5146 110.376 47.4401C111.272 46.3656 112.517 45.6399 113.894 45.3894L125.31 43.298C126.603 43.0628 127.932 43.1147 129.202 43.4501C130.473 43.7855 131.654 44.3961 132.662 45.2388C133.671 46.0815 134.481 47.1355 135.037 48.3263C135.593 49.5171 135.88 50.8155 135.878 52.1296V84.3757Z" fill="#35436C"/>
</g>
<rect x="141.854" y="130.221" width="71.7033" height="4.53296" rx="2.26648" transform="rotate(-180 141.854 130.221)" fill="#35436C"/>
<rect x="141.854" y="137.638" width="71.7033" height="4.53296" rx="2.26648" transform="rotate(-180 141.854 137.638)" fill="#35436C"/>
<rect x="141.854" y="145.056" width="71.7033" height="4.53296" rx="2.26648" transform="rotate(-180 141.854 145.056)" fill="#35436C"/>
<rect x="103.117" y="152.474" width="32.967" height="4.53296" rx="2.26648" transform="rotate(-180 103.117 152.474)" fill="#35436C"/>
<path d="M49.9484 14.41C50.3641 13.9146 50.566 13.2744 50.5096 12.6302C50.4532 11.986 50.1433 11.3906 49.6479 10.975L45.9124 7.84048C45.417 7.42483 44.7769 7.22298 44.1327 7.27934C43.4885 7.3357 42.8931 7.64566 42.4774 8.14102C42.0617 8.63638 41.8599 9.27658 41.9162 9.92076C41.9726 10.565 42.2826 11.1604 42.7779 11.576L46.5134 14.7105C47.0088 15.1262 47.649 15.328 48.2932 15.2716C48.9374 15.2153 49.5328 14.9053 49.9484 14.41Z" fill="#0C8CE9"/>
<path d="M55.6872 11.2255C56.0089 11.2069 56.3237 11.1248 56.6134 10.9838C56.9031 10.8428 57.162 10.6458 57.3752 10.4042C57.5883 10.1625 57.7514 9.88106 57.8551 9.576C57.9588 9.27094 58.001 8.94835 57.9792 8.62688L57.6526 3.18472C57.6135 2.53898 57.3196 1.9352 56.8354 1.50621C56.3511 1.07722 55.7163 0.858152 55.0706 0.897203C54.4249 0.936253 53.8211 1.23022 53.3921 1.71444C52.9631 2.19866 52.744 2.83346 52.7831 3.4792L53.1097 8.92136C53.1268 9.24219 53.2072 9.55647 53.3461 9.84614C53.4851 10.1358 53.6799 10.3952 53.9195 10.6093C54.159 10.8234 54.4385 10.9881 54.7418 11.0938C55.0452 11.1996 55.3665 11.2444 55.6872 11.2255Z" fill="#0C8CE9"/>
<path d="M44.9881 23.1842C45.6323 23.1111 46.2211 22.785 46.6249 22.2778C47.0287 21.7705 47.2145 21.1236 47.1414 20.4794C47.0683 19.8352 46.7422 19.2464 46.235 18.8426C45.7278 18.4387 45.0809 18.2529 44.4366 18.3261L39.0204 18.9494C38.7022 18.9859 38.3943 19.0847 38.1142 19.2402C37.8342 19.3956 37.5875 19.6048 37.3883 19.8556C36.9859 20.3622 36.8012 21.0078 36.8749 21.6505C36.9486 22.2932 37.2746 22.8803 37.7811 23.2827C38.2877 23.6851 38.9333 23.8697 39.576 23.7961L44.9881 23.1842Z" fill="#0C8CE9"/>
<defs>
<filter id="filter0_d_1648_21285" x="0.271484" y="75.0039" width="211.244" height="161.316" filterUnits="userSpaceOnUse" color-interpolation-filters="sRGB">
<feFlood flood-opacity="0" result="BackgroundImageFix"/>
<feColorMatrix in="SourceAlpha" type="matrix" values="0 0 0 0 0 0 0 0 0 0 0 0 0 0 0 0 0 0 127 0" result="hardAlpha"/>
<feOffset dy="5"/>
<feGaussianBlur stdDeviation="25"/>
<feComposite in2="hardAlpha" operator="out"/>
<feColorMatrix type="matrix" values="0 0 0 0 0.0470588 0 0 0 0 0.54902 0 0 0 0 0.913725 0 0 0 1 0"/>
<feBlend mode="normal" in2="BackgroundImageFix" result="effect1_dropShadow_1648_21285"/>
<feBlend mode="normal" in="SourceGraphic" in2="effect1_dropShadow_1648_21285" result="shape"/>
</filter>
<clipPath id="clip0_1648_21285">
<rect width="71.7045" height="71.7045" fill="white" transform="translate(70.1484 34.2036)"/>
</clipPath>
</defs>
</svg>
