<svg width="212" height="237" viewBox="0 0 212 237" fill="none" xmlns="http://www.w3.org/2000/svg">
<ellipse cx="106" cy="106.32" rx="75" ry="75" fill="#F316B0"/>
<g filter="url(#filter0_d_1648_21309)">
<mask id="mask0_1648_21309" style="mask-type:alpha" maskUnits="userSpaceOnUse" x="31" y="31" width="150" height="151">
<ellipse cx="106" cy="106.32" rx="75" ry="75" fill="#8A38F5"/>
</mask>
<g mask="url(#mask0_1648_21309)">
<rect x="50.2715" y="120.004" width="111.244" height="61.3158" fill="#1F2842"/>
</g>
</g>
<rect x="50.3691" y="14.4242" width="111.264" height="133.516" rx="30" fill="#1F2842"/>
<g clip-path="url(#clip0_1648_21309)">
<path d="M126.914 52.1295H85.0869C81.125 52.1295 77.3253 53.7034 74.5238 56.5049C71.7223 59.3064 70.1484 63.106 70.1484 67.068V90.9694C70.1484 94.9314 71.7223 98.731 74.5238 101.533C77.3253 104.334 81.125 105.908 85.0869 105.908H126.914C128.876 105.908 130.819 105.521 132.631 104.771C134.444 104.02 136.09 102.92 137.478 101.533C138.865 100.145 139.965 98.4986 140.716 96.6861C141.467 94.8737 141.853 92.9312 141.853 90.9694V67.068C141.853 65.1062 141.467 63.1637 140.716 61.3513C139.965 59.5388 138.865 57.892 137.478 56.5049C136.09 55.1177 134.444 54.0174 132.631 53.2666C130.819 52.5159 128.876 52.1295 126.914 52.1295ZM135.878 90.9694C135.878 93.3466 134.933 95.6264 133.252 97.3073C131.571 98.9882 129.292 99.9325 126.914 99.9325H85.0869C82.7097 99.9325 80.4299 98.9882 78.749 97.3073C77.0681 95.6264 76.1238 93.3466 76.1238 90.9694V67.068C76.1238 64.6908 77.0681 62.411 78.749 60.7301C80.4299 59.0492 82.7097 58.1049 85.0869 58.1049H126.914C129.292 58.1049 131.571 59.0492 133.252 60.7301C134.933 62.411 135.878 64.6908 135.878 67.068V90.9694Z" fill="#35436C"/>
<path d="M118.827 38.0664C119.994 36.8996 121.885 36.8996 123.052 38.0664C124.218 39.2331 124.218 41.1244 123.052 42.2911L108.988 56.3543L104.764 52.1295L118.827 38.0664Z" fill="#35436C"/>
<path d="M93.1751 38.0664C92.0084 36.8996 90.1171 36.8996 88.9504 38.0664C87.7836 39.2331 87.7836 41.1244 88.9504 42.2911L103.014 56.3543L107.238 52.1295L93.1751 38.0664Z" fill="#35436C"/>
</g>
<rect x="141.854" y="130.221" width="71.7033" height="4.53296" rx="2.26648" transform="rotate(-180 141.854 130.221)" fill="#35436C"/>
<rect x="141.854" y="137.638" width="71.7033" height="4.53296" rx="2.26648" transform="rotate(-180 141.854 137.638)" fill="#35436C"/>
<rect x="141.854" y="145.056" width="71.7033" height="4.53296" rx="2.26648" transform="rotate(-180 141.854 145.056)" fill="#35436C"/>
<rect x="103.117" y="152.473" width="32.967" height="4.53296" rx="2.26648" transform="rotate(-180 103.117 152.473)" fill="#35436C"/>
<path d="M49.9484 14.4098C50.3641 13.9145 50.566 13.2743 50.5096 12.6301C50.4532 11.9859 50.1433 11.3905 49.6479 10.9748L45.9124 7.84036C45.417 7.42471 44.7769 7.22286 44.1327 7.27922C43.4885 7.33558 42.8931 7.64553 42.4774 8.1409C42.0617 8.63626 41.8599 9.27645 41.9162 9.92064C41.9726 10.5648 42.2826 11.1602 42.7779 11.5759L46.5134 14.7104C47.0088 15.126 47.649 15.3279 48.2932 15.2715C48.9374 15.2152 49.5328 14.9052 49.9484 14.4098Z" fill="#F316B0"/>
<path d="M55.6872 11.2257C56.0089 11.2071 56.3237 11.1249 56.6134 10.9839C56.9031 10.843 57.162 10.646 57.3752 10.4043C57.5883 10.1627 57.7514 9.88118 57.8551 9.57612C57.9588 9.27106 58.001 8.94847 57.9792 8.62701L57.6526 3.18484C57.6135 2.53911 57.3196 1.93533 56.8354 1.50633C56.3511 1.07734 55.7163 0.858274 55.0706 0.897325C54.4249 0.936375 53.8211 1.23034 53.3921 1.71456C52.9631 2.19878 52.744 2.83358 52.7831 3.47932L53.1097 8.92148C53.1268 9.24231 53.2072 9.55659 53.3461 9.84626C53.4851 10.1359 53.6799 10.3953 53.9195 10.6094C54.159 10.8235 54.4385 10.9882 54.7418 11.094C55.0452 11.1997 55.3665 11.2445 55.6872 11.2257Z" fill="#F316B0"/>
<path d="M44.9881 23.1842C45.6323 23.1111 46.2211 22.785 46.6249 22.2778C47.0287 21.7705 47.2145 21.1236 47.1414 20.4794C47.0683 19.8352 46.7422 19.2464 46.235 18.8426C45.7278 18.4387 45.0809 18.2529 44.4366 18.3261L39.0204 18.9494C38.7022 18.9859 38.3943 19.0847 38.1142 19.2402C37.8342 19.3956 37.5875 19.6048 37.3883 19.8556C36.9859 20.3622 36.8012 21.0078 36.8749 21.6505C36.9486 22.2932 37.2746 22.8803 37.7811 23.2827C38.2877 23.6851 38.9333 23.8697 39.576 23.7961L44.9881 23.1842Z" fill="#F316B0"/>
<defs>
<filter id="filter0_d_1648_21309" x="0.271484" y="75.0038" width="211.244" height="161.316" filterUnits="userSpaceOnUse" color-interpolation-filters="sRGB">
<feFlood flood-opacity="0" result="BackgroundImageFix"/>
<feColorMatrix in="SourceAlpha" type="matrix" values="0 0 0 0 0 0 0 0 0 0 0 0 0 0 0 0 0 0 127 0" result="hardAlpha"/>
<feOffset dy="5"/>
<feGaussianBlur stdDeviation="25"/>
<feComposite in2="hardAlpha" operator="out"/>
<feColorMatrix type="matrix" values="0 0 0 0 0.952941 0 0 0 0 0.0862745 0 0 0 0 0.690196 0 0 0 1 0"/>
<feBlend mode="normal" in2="BackgroundImageFix" result="effect1_dropShadow_1648_21309"/>
<feBlend mode="normal" in="SourceGraphic" in2="effect1_dropShadow_1648_21309" result="shape"/>
</filter>
<clipPath id="clip0_1648_21309">
<rect width="71.7045" height="71.7045" fill="white" transform="translate(70.1484 34.2036)"/>
</clipPath>
</defs>
</svg>
